<?xml version="1.0" standalone="no"?>
<!DOCTYPE svg PUBLIC "-//W3C//DTD SVG 20010904//EN"
 "http://www.w3.org/TR/2001/REC-SVG-20010904/DTD/svg10.dtd">
<svg version="1.0" xmlns="http://www.w3.org/2000/svg"
 width="3000.000000pt" height="2000.000000pt" viewBox="0 0 3000.000000 2000.000000"
 preserveAspectRatio="xMidYMid meet">

<g transform="translate(0.000000,2000.000000) scale(0.100000,-0.100000)"
fill="#000000" stroke="none">
<path d="M0 19948 l0 -52 50 49 c28 27 50 51 50 52 0 2 -22 3 -50 3 l-50 0 0
-52z"/>
<path d="M77 19922 l-77 -78 2 -254 3 -253 310 310 c171 170 319 319 329 331
l19 22 -254 0 -254 0 -78 -78z"/>
<path d="M362 19637 l-362 -362 2 -253 3 -252 615 615 615 615 -255 0 -255 0
-363 -363z"/>
<path d="M642 19357 l-642 -642 0 -252 c0 -138 4 -254 9 -257 5 -3 15 2 22 12
13 16 12 16 -6 2 -11 -8 182 188 429 435 773 776 1341 1341 1326 1320 -14 -18
-14 -19 2 -6 10 7 15 17 12 22 -3 5 -119 9 -257 9 l-252 0 -643 -643z"/>
<path d="M922 19072 l-922 -925 2 -254 3 -254 1175 1175 c646 647 1177 1178
1179 1181 2 3 -112 4 -255 4 l-259 -1 -923 -926z"/>
<path d="M1207 18792 l-1207 -1207 2 -257 3 -257 1464 1465 1465 1464 -260 0
-259 0 -1208 -1208z"/>
<path d="M1490 18509 l-1485 -1488 -3 -257 -2 -258 30 29 c32 30 3451 3451
3459 3460 2 3 -112 4 -255 4 l-259 -2 -1485 -1488z"/>
<path d="M1772 18226 l-1772 -1773 2 -256 3 -257 2030 2030 2030 2030 -260 0
-260 0 -1773 -1774z"/>
<path d="M2057 17943 l-2057 -2057 0 -254 c0 -224 2 -253 15 -242 19 16 4579
4576 4595 4595 11 13 -18 15 -242 15 l-254 0 -2057 -2057z"/>
<path d="M2337 17662 l-2337 -2337 2 -258 3 -257 2595 2595 2595 2595 -260 0
-260 0 -2338 -2338z"/>
<path d="M2622 17377 l-2622 -2622 0 -152 0 -152 55 -41 c30 -22 58 -40 62
-40 4 0 1275 1267 2823 2815 l2815 2815 -255 0 -255 0 -2623 -2623z"/>
<path d="M2986 17174 c-1554 -1554 -2826 -2829 -2826 -2834 0 -9 225 -162 279
-190 23 -12 124 88 2955 2919 l2931 2931 -257 0 -257 0 -2825 -2826z"/>
<path d="M3437 17062 c-1615 -1615 -2937 -2940 -2937 -2943 0 -8 160 -99 259
-149 l64 -32 3031 3031 3031 3031 -255 0 -255 0 -2938 -2938z"/>
<path d="M3902 16964 c-1668 -1669 -3031 -3038 -3027 -3043 6 -11 86 -49 182
-88 37 -15 60 -29 56 -36 -3 -6 -1 -7 6 -3 6 4 32 0 57 -10 l46 -17 3091 3089
c1700 1699 3093 3090 3095 3091 3 1 2 14 -2 28 l-6 25 -233 -1 -232 0 -3033
-3035z"/>
<path d="M7445 19983 c4 -10 33 -97 65 -193 102 -306 149 -503 205 -865 38
-242 55 -729 36 -995 -49 -667 -214 -1270 -506 -1850 -64 -128 -247 -446 -264
-460 -3 -3 -12 -16 -20 -30 -52 -94 -316 -437 -333 -432 -5 1 -7 -1 -4 -6 2
-4 -15 -30 -39 -57 -25 -28 -45 -54 -45 -59 0 -4 -7 -6 -14 -3 -9 4 -13 1 -10
-6 8 -21 -317 -343 -491 -486 -93 -76 -349 -267 -435 -323 -222 -145 -453
-274 -472 -262 -6 4 -8 3 -5 -3 10 -17 -459 -229 -546 -247 -6 -2 -23 -8 -37
-13 -219 -89 -657 -192 -1010 -237 -430 -55 -949 -44 -1387 29 -576 97 -1124
293 -1612 575 -152 88 -381 239 -472 311 -20 16 -40 29 -43 29 -3 0 -6 -2112
-6 -4692 l0 -4693 1632 1631 c1791 1789 1688 1692 1876 1757 70 23 110 30 203
34 157 7 251 -12 389 -80 89 -44 118 -64 191 -137 97 -97 135 -151 178 -253
102 -248 73 -530 -79 -743 -31 -45 -816 -836 -2219 -2239 l-2171 -2170 0 -709
0 -709 1483 1483 c815 815 1509 1501 1542 1525 287 204 706 95 872 -226 92
-180 82 -416 -27 -591 -22 -35 -645 -666 -1794 -1816 -969 -970 -1763 -1765
-1765 -1767 -2 -3 702 -5 1565 -5 l1569 0 19 103 c30 171 114 491 180 692 87
261 161 443 280 690 214 440 444 797 762 1180 138 167 521 550 689 689 904
751 1924 1180 3099 1302 210 22 751 27 968 9 190 -16 386 -40 503 -62 44 -8
107 -17 140 -20 33 -2 69 -8 80 -13 11 -5 106 -30 210 -55 361 -89 748 -229
1082 -390 321 -156 586 -312 843 -498 l95 -69 3 71 3 71 94 0 95 0 0 -100 0
-99 -55 -3 -56 -3 118 -96 c729 -593 1319 -1399 1669 -2282 120 -300 239 -706
295 -999 l22 -118 1505 0 1505 0 -23 25 c-19 20 -21 27 -10 40 7 8 17 12 23 8
5 -3 7 -1 4 4 -4 6 -1 16 6 22 10 8 21 4 46 -16 l31 -26 -21 -23 c-12 -13 -25
-21 -30 -19 -4 3 -10 1 -14 -4 -9 -15 819 -15 846 0 15 8 24 8 32 0 8 -8 431
-11 1481 -11 l1470 0 -38 39 -38 38 41 43 c41 43 41 43 63 24 12 -10 32 -30
44 -44 l23 -25 -37 -37 -36 -38 387 0 388 0 39 41 39 41 36 -41 37 -41 1446 0
1446 0 -49 50 -50 50 55 55 55 55 55 -55 54 -55 -49 -50 -49 -50 2352 0 2352
0 0 3454 0 3453 -72 7 c-433 43 -798 351 -909 767 -122 459 86 944 504 1174
125 69 320 125 433 125 l44 0 0 5510 0 5510 -5997 0 -5997 0 -28 -27 -28 -27
-28 27 -28 27 -1852 0 c-1511 0 -1852 -2 -1852 -13 0 -7 -18 -31 -40 -52 l-40
-39 -40 39 c-22 22 -38 45 -36 52 7 17 -764 19 -781 2 -8 -8 -13 -8 -17 0 -5
8 -421 11 -1448 11 l-1441 0 18 -20 c19 -21 18 -22 -37 -77 l-56 -56 -51 52
c-28 29 -51 55 -51 58 0 4 7 15 17 25 16 17 -28 18 -1367 18 -1312 0 -1382 -1
-1375 -17z m3746 -167 c-47 -47 -49 -48 -72 -32 -13 8 -37 32 -53 52 l-29 37
51 49 52 49 50 -53 50 -53 -49 -49z m3859 75 c0 -10 -67 -71 -77 -71 -5 0 -25
16 -44 36 l-34 35 43 40 42 40 35 -37 c19 -20 35 -40 35 -43z m3808 12 c-26
-32 -49 -36 -74 -12 l-24 23 27 28 27 28 28 -27 c22 -21 25 -29 16 -40z
m-6810 -76 c23 -23 42 -47 42 -53 0 -5 -20 -30 -45 -54 l-45 -44 -45 44 c-25
24 -45 49 -45 54 0 11 80 96 90 96 3 0 25 -19 48 -43z m3830 8 l37 -36 -40
-34 -40 -34 -35 34 -34 35 34 35 c19 19 36 35 38 35 2 0 20 -16 40 -35z
m-2964 -104 l39 -39 -46 -48 -45 -48 -45 45 -45 46 41 41 c23 23 46 42 52 42
6 0 28 -18 49 -39z m3826 12 l31 -28 -36 -35 -35 -34 -32 32 -32 32 29 30 c16
16 32 30 37 30 4 0 22 -12 38 -27z m-2972 -190 l-42 -43 -43 42 -43 42 42 43
42 43 43 -42 43 -42 -42 -43z m3826 37 l-30 -30 -29 30 -29 30 29 30 29 30 30
-30 31 -30 -31 -30z m-6789 -60 l48 -49 -51 -53 -51 -52 -53 52 -52 52 49 50
c27 28 52 50 55 50 3 0 28 -22 55 -50z m3822 18 c18 -18 33 -37 33 -43 0 -6
-16 -26 -35 -45 l-35 -34 -40 39 -40 39 37 38 c20 21 39 38 42 38 3 0 20 -14
38 -32z m3833 7 l24 -26 -27 -27 -27 -27 -27 27 -27 27 24 26 c13 14 26 25 30
25 4 0 17 -11 30 -25z m-6795 -215 l-50 -50 -50 50 -50 50 50 50 49 50 50 -50
50 -50 -49 -50z m3823 115 c15 -14 22 -25 17 -25 -6 0 -5 -4 2 -8 9 -5 3 -17
-18 -40 -16 -18 -33 -32 -38 -32 -4 0 -22 14 -40 32 l-32 31 33 34 c17 18 36
33 40 33 5 0 21 -11 36 -25z m3832 8 c20 -17 20 -17 -7 -45 -26 -28 -27 -28
-45 -8 -22 24 -22 29 -1 52 20 22 28 23 53 1z m-6800 -208 l-44 -45 -45 45
-45 45 44 45 44 45 45 -45 45 -45 -44 -45z m3847 86 c20 2 11 -22 -19 -50
l-33 -30 -32 31 -33 32 32 34 33 33 22 -26 c12 -14 26 -25 30 -24z m-2982 -92
l40 -40 -44 -41 -43 -41 -41 42 -41 41 39 40 c21 22 42 40 45 40 3 0 24 -18
45 -41z m3828 13 l27 -28 -29 -28 -30 -28 -30 21 c-17 13 -31 26 -31 30 0 14
36 41 44 34 4 -5 7 -3 6 2 -7 34 9 33 43 -3z m-2968 -182 l-41 -40 -39 40 -39
40 38 39 39 40 41 -39 41 -40 -40 -40z m3845 61 c0 -4 -11 -18 -24 -30 l-25
-23 -26 26 c-24 25 -27 54 -3 40 6 -4 8 -2 4 4 -3 6 1 18 11 27 16 16 18 16
40 -9 13 -15 23 -31 23 -35z m-6814 -85 c24 -25 44 -48 44 -53 0 -9 -84 -93
-93 -93 -3 0 -26 21 -51 48 l-45 47 47 48 c25 26 48 47 50 47 2 0 23 -20 48
-44z m3849 -37 c-4 -8 -19 -24 -35 -37 l-28 -22 -31 31 c-17 17 -31 33 -31 37
0 3 14 21 32 39 l32 33 34 -33 c20 -20 30 -39 27 -48z m3820 42 c3 -8 -4 -25
-17 -38 l-22 -24 -25 25 -25 25 23 25 c19 21 26 23 42 13 10 -6 21 -18 24 -26z
m-6807 -104 l42 -43 -42 -47 -43 -47 -47 47 -48 47 42 43 c23 24 45 43 48 43
3 0 25 -19 48 -43z m3827 13 l29 -30 -34 -35 -34 -35 -28 27 c-15 15 -28 31
-28 37 0 11 50 66 60 66 3 0 19 -14 35 -30z m-2972 -190 l-43 -44 -42 42 -42
43 44 44 43 44 42 -42 42 -42 -44 -45z m3803 115 c-3 -8 -2 -14 2 -14 20 3 32
-3 41 -20 8 -14 4 -24 -18 -45 l-28 -27 -32 27 -32 27 32 33 c36 37 44 42 35
19z m-2941 -116 c19 -17 35 -36 35 -42 0 -14 -61 -77 -75 -77 -5 0 -25 16 -43
36 l-34 36 38 39 c21 22 39 39 41 39 1 0 18 -14 38 -31z m3833 -46 c-27 -29
-29 -29 -61 1 l-25 23 26 27 26 26 28 -27 28 -27 -22 -23z m-2970 -56 l31 -32
-34 -40 -34 -40 -37 38 -37 38 34 35 c18 19 36 34 39 34 3 0 20 -15 38 -33z
m3824 16 c23 -21 23 -34 -3 -57 -20 -17 -22 -17 -45 5 l-24 23 22 23 c26 27
26 28 50 6z m-2968 -173 l-34 -35 -32 33 -32 32 34 35 34 35 32 -32 33 -33
-35 -35z m-3823 51 c42 -38 42 -38 24 -62 -10 -13 -31 -34 -46 -47 l-29 -23
-44 43 -44 43 41 43 c23 23 45 42 49 42 4 0 26 -17 49 -39z m15050 -21 c22
-12 49 -61 49 -89 0 -86 -106 -132 -170 -73 -67 62 -28 172 62 172 22 0 48 -5
59 -10z m603 -1 c33 -15 59 -71 51 -108 -22 -100 -169 -99 -190 1 -18 78 64
141 139 107z m616 -4 c102 -53 34 -211 -75 -175 -45 15 -65 44 -65 96 0 35 5
47 31 68 35 30 67 33 109 11z m-6242 -212 l-3 -218 -2440 0 -2440 0 -3 205
c-1 112 0 210 2 217 4 11 475 13 2446 13 l2440 0 -2 -217z m-9150 128 l24 -24
-43 -43 -43 -44 -43 42 -43 42 42 43 c46 47 44 47 106 -16z m3806 -31 l-30
-30 -29 30 -29 30 29 30 29 30 30 -30 31 -30 -31 -30z m-2971 -35 c16 -14 25
-30 21 -37 -4 -6 -3 -8 4 -4 6 3 13 2 16 -2 3 -5 -12 -26 -33 -46 l-39 -38
-41 38 -42 37 38 39 c20 21 40 38 43 38 3 0 18 -12 33 -25z m897 -136 c0 -9
-59 -69 -68 -69 -3 0 -21 14 -39 32 l-33 32 37 38 37 38 33 -32 c18 -18 33
-35 33 -39z m833 -63 l26 -33 -32 -31 -32 -31 -33 33 c-31 31 -32 33 -14 49
10 9 22 14 27 10 4 -5 5 -2 0 6 -4 8 -2 17 6 22 21 13 25 12 52 -25z m-2968
-106 l39 -40 -42 -43 -42 -42 -42 42 -42 43 39 40 c21 22 42 40 45 40 3 0 24
-18 45 -40z m3828 12 l27 -28 -30 -29 -30 -29 -30 29 -30 29 27 28 c15 15 30
28 33 28 3 0 18 -13 33 -28z m-2968 -182 l-41 -40 -39 40 -39 40 39 40 39 40
41 -40 40 -40 -40 -40z m3845 65 c0 -6 -11 -21 -25 -33 l-25 -22 -26 26 -25
26 27 29 28 29 23 -22 c13 -12 23 -27 23 -33z m9271 16 c33 -33 38 -75 14
-120 -17 -33 -33 -41 -85 -41 -69 0 -111 64 -85 127 29 68 105 84 156 34z
m608 3 c26 -22 31 -33 31 -70 0 -62 -32 -94 -93 -94 -91 0 -132 97 -68 161 39
38 87 39 130 3z m600 11 c55 -28 64 -104 19 -152 -16 -18 -33 -23 -68 -23 -35
0 -52 5 -68 23 -79 84 14 206 117 152z m-18089 -231 c188 -108 339 -198 337
-200 -5 -6 -679 -394 -683 -394 -2 0 -4 178 -4 395 0 217 2 395 5 395 3 0 158
-88 345 -196z m1058 53 c136 -79 289 -167 340 -197 l93 -53 -28 -17 c-15 -10
-120 -71 -233 -135 -113 -65 -254 -147 -313 -182 -60 -35 -111 -63 -113 -63
-2 0 -4 178 -4 395 0 217 2 395 5 395 3 0 117 -64 253 -143z m3591 49 c11 -13
7 -21 -24 -51 -21 -19 -41 -35 -44 -35 -3 0 -19 16 -35 36 l-28 36 32 33 33
34 27 -19 c15 -10 32 -26 39 -34z m3821 10 c0 -14 -31 -46 -45 -46 -7 0 -20 9
-31 21 -16 17 -16 22 -4 29 8 6 11 10 6 10 -6 0 -1 6 9 14 17 12 22 12 42 -3
12 -9 23 -20 23 -25z m-2984 -87 l31 -30 -29 -30 c-16 -16 -33 -29 -37 -29 -4
0 -20 14 -36 30 l-29 30 29 30 c16 17 31 30 34 30 3 0 19 -14 37 -31z m859
-149 c-16 -16 -32 -30 -36 -30 -4 0 -17 14 -30 31 l-21 30 28 30 28 29 30 -30
30 -30 -29 -30z m-2966 -45 c17 -20 31 -39 31 -43 0 -5 -16 -23 -35 -42 l-35
-34 -40 39 -40 39 37 38 c20 21 40 38 44 38 4 0 21 -16 38 -35z m3831 10 l24
-26 -25 -25 c-28 -27 -47 -25 -67 7 -12 18 -11 24 9 45 28 30 30 30 59 -1z
m-2969 -111 l34 -36 -35 -29 c-19 -16 -37 -29 -40 -29 -3 0 -21 13 -40 29
l-35 29 34 36 c19 20 38 36 41 36 3 0 22 -16 41 -36z m3821 19 c24 -22 23 -38
-6 -56 -22 -15 -25 -15 -40 2 -20 22 -20 30 1 53 20 22 22 22 45 1z m-2938
-147 c-3 -6 -18 -21 -33 -32 l-27 -22 -34 28 -35 29 34 35 35 36 32 -31 c18
-17 30 -36 28 -43z m845 -69 c11 -17 9 -24 -16 -49 l-29 -28 -29 30 -29 30 28
29 c31 32 50 29 75 -12z m826 -67 c-3 -5 0 -8 7 -5 7 3 19 -4 26 -16 12 -19
11 -25 -12 -48 l-26 -26 -26 27 c-26 26 -26 26 -8 52 18 23 53 38 39 16z
m-2915 -152 c0 -9 -57 -68 -66 -68 -3 0 -21 14 -40 32 l-34 32 37 38 37 38 33
-32 c18 -18 33 -35 33 -40z m3805 2 c-23 -25 -37 -25 -60 0 -18 20 -18 21 5
45 l24 26 25 -25 c24 -25 24 -26 6 -46z m-2969 -62 l35 -32 -37 -32 -38 -31
-33 30 -33 31 32 33 c17 18 33 33 35 33 2 0 19 -14 39 -32z m857 -96 l27 -28
-30 -29 -30 -29 -30 29 -30 29 27 28 c15 15 30 28 33 28 3 0 18 -13 33 -28z
m865 -139 c-27 -29 -36 -29 -65 -1 l-23 22 27 28 27 28 28 -27 28 -27 -22 -23z
m872 -68 c0 -7 -9 -20 -20 -30 -20 -18 -21 -18 -45 5 l-24 23 22 27 22 28 23
-21 c12 -11 22 -26 22 -32z m-2979 -83 l30 -28 -36 -34 -35 -34 -32 32 -32 32
29 30 c16 16 33 30 37 30 5 0 22 -13 39 -28z m854 -152 c-26 -27 -31 -29 -41
-16 -6 9 -13 14 -16 11 -2 -3 -10 6 -18 19 -11 22 -10 27 16 50 l29 25 30 -29
29 -30 -29 -30z m865 -35 l24 -26 -26 -26 c-26 -25 -26 -25 -52 -7 -32 23 -33
40 -3 65 28 24 29 24 57 -6z m8440 -190 c0 -114 -2 -210 -5 -213 -3 -3 -5 93
-5 213 0 120 2 216 5 213 3 -3 5 -99 5 -213z m2498 3 l107 -2 -107 -3 -108 -4
-2 -107 -2 -107 -3 108 -4 107 -107 2 -107 2 108 3 107 4 2 107 2 107 3 -107
4 -108 107 -2z m-10086 95 c23 -21 23 -36 -2 -58 -19 -17 -21 -17 -40 0 -24
22 -25 33 -3 57 20 22 22 22 45 1z m7521 -100 c-29 -2 -77 -2 -105 0 -29 2 -6
3 52 3 58 0 81 -1 53 -3z m235 0 c-26 -2 -71 -2 -100 0 -29 2 -8 3 47 3 55 0
79 -1 53 -3z m1135 0 c-62 -2 -164 -2 -225 0 -62 1 -12 3 112 3 124 0 174 -2
113 -3z m2215 0 c-26 -2 -71 -2 -100 0 -29 2 -8 3 47 3 55 0 79 -1 53 -3z
m230 0 c-26 -2 -71 -2 -100 0 -29 2 -8 3 47 3 55 0 79 -1 53 -3z m-13435 -101
l27 -28 -33 -32 -33 -32 -29 30 -29 30 29 30 c16 17 32 30 35 30 3 0 18 -13
33 -28z m856 -148 l-24 -24 -30 24 -30 24 29 30 28 31 26 -30 25 -31 -24 -24z
m865 -83 c-23 -26 -36 -26 -59 -1 -18 20 -18 21 5 45 l24 26 24 -24 c23 -24
24 -25 6 -46z m4069 -257 c106 -389 269 -808 473 -1217 52 -104 72 -153 66
-164 -11 -19 -24 2 -119 197 -193 394 -333 755 -440 1129 -46 161 -52 189 -45
196 16 16 30 -14 65 -141z m-5320 -45 l-28 -27 -28 26 -27 26 27 28 27 28 28
-27 29 -27 -28 -27z m865 -42 l22 -23 -25 -24 -25 -23 -25 23 -25 24 22 23
c12 13 24 23 28 23 4 0 16 -10 28 -23z m8460 -229 l107 -2 -107 -3 -108 -4 -2
-107 -2 -107 -3 108 -4 107 -107 2 -107 2 108 3 107 4 2 107 2 107 3 -107 4
-108 107 -2z m2390 0 l107 -2 -107 -3 -108 -4 -2 -107 -2 -107 -3 108 -4 107
-107 2 -107 2 108 3 107 4 2 107 2 107 3 -107 4 -108 107 -2z m1272 -2 c19 -1
-66 -2 -190 -2 -164 0 -194 1 -110 5 108 6 220 5 300 -3z m-2467 -3 c-62 -2
-164 -2 -225 0 -62 1 -12 3 112 3 124 0 174 -2 113 -3z m-10043 -190 c-19 -28
-32 -29 -55 -3 -18 20 -18 21 4 44 l22 24 23 -22 c20 -19 20 -23 6 -43z m8848
-716 c59 -1 8 -3 -113 -3 -121 0 -172 2 -112 3 l107 4 2 107 2 107 3 -107 4
-107 107 -4z m2390 0 c59 -1 8 -3 -113 -3 -121 0 -172 2 -112 3 l107 4 2 107
2 107 3 -107 4 -107 107 -4z m1262 -1 c19 -1 -64 -2 -185 -2 -163 0 -190 1
-105 5 108 6 209 5 290 -3z m-2462 -3 c-60 -2 -156 -2 -215 0 -60 1 -11 3 107
3 118 0 167 -2 108 -3z m-1301 -165 c-2 -29 -3 -6 -3 52 0 58 1 81 3 53 2 -29
2 -77 0 -105z m2390 0 c-2 -29 -3 -6 -3 52 0 58 1 81 3 53 2 -29 2 -77 0 -105z
m-5673 -78 c26 -47 27 -70 5 -70 -5 0 -13 8 -16 18 -4 9 -17 34 -30 55 -14 22
-22 46 -19 54 9 22 27 4 60 -57z m87 -152 c27 -46 34 -66 27 -76 -8 -10 -13
-9 -23 5 -7 10 -11 21 -9 25 3 5 1 8 -5 8 -17 0 -58 85 -47 97 14 13 12 16 57
-59z m104 -168 c48 -76 52 -86 33 -92 -14 -5 -110 141 -102 154 11 18 25 5 69
-62z m136 -233 c-8 -8 -14 -8 -19 -1 -4 5 -22 31 -40 57 -27 39 -31 51 -22 62
10 12 19 5 53 -46 31 -46 38 -62 28 -72z m3067 -109 l107 -2 -107 -3 -108 -4
-2 -102 -2 -102 -3 103 -4 102 -107 2 -107 2 108 3 107 4 2 107 2 107 3 -107
4 -108 107 -2z m2279 90 c-2 -24 -4 -5 -4 42 0 47 2 66 4 43 2 -24 2 -62 0
-85z m-5262 -72 c31 -47 36 -66 16 -66 -17 0 -91 109 -85 125 8 21 25 7 69
-59z m5265 -124 l-5 -107 -3 103 -3 102 -107 2 -107 2 108 3 c103 4 107 5 108
26 l1 22 6 -23 c4 -12 5 -71 2 -130z m-1010 104 c14 -2 -72 -3 -190 -3 -153 1
-185 3 -110 6 99 6 245 4 300 -3z m1178 -3 c-26 -2 -71 -2 -100 0 -29 2 -8 3
47 3 55 0 79 -1 53 -3z m980 0 c-32 -2 -86 -2 -120 0 -35 2 -9 3 57 3 66 0 94
-1 63 -3z m215 0 c-29 -2 -77 -2 -105 0 -29 2 -6 3 52 3 58 0 81 -1 53 -3z
m-6574 -80 c-12 -16 -12 -17 2 -6 13 11 21 6 47 -31 27 -38 30 -45 17 -56 -8
-7 -15 -8 -15 -4 0 5 -18 31 -40 57 -32 39 -37 51 -27 62 18 20 33 0 16 -22z
m145 -159 c49 -59 55 -74 31 -74 -14 0 -95 93 -95 109 0 7 11 21 16 21 2 0 23
-25 48 -56z m129 -155 c36 -44 44 -59 34 -67 -18 -15 -120 107 -105 126 6 7
14 9 18 5 3 -4 27 -33 53 -64z m165 -206 c-13 -16 -22 -9 -79 58 -61 73 -38
82 32 13 45 -45 56 -61 47 -71z m113 -126 c-17 -17 -107 74 -97 99 6 16 14 11
58 -34 39 -40 48 -56 39 -65z m92 -67 c42 -41 49 -52 37 -60 -18 -11 -63 26
-53 44 3 6 2 8 -2 3 -10 -9 -66 43 -59 55 10 16 24 8 77 -42z m123 -122 c56
-54 64 -68 39 -68 -22 0 -119 95 -111 109 11 17 13 15 72 -41z m146 -132 c44
-41 55 -56 45 -64 -16 -14 -134 88 -123 106 11 18 17 15 78 -42z m137 -122
c34 -30 49 -50 42 -57 -11 -11 -34 0 -26 13 3 4 -1 7 -8 6 -18 -2 -89 62 -82
74 10 17 21 12 74 -36z m144 -117 c33 -27 45 -43 38 -50 -19 -19 -130 70 -116
93 8 13 16 8 78 -43z m171 -132 c11 -8 16 -20 12 -30 -5 -13 -17 -8 -66 30
-59 45 -67 55 -54 68 6 6 35 -13 108 -68z m124 -91 c56 -42 72 -65 39 -60 -23
3 -137 87 -132 97 11 17 31 9 93 -37z m147 -100 c30 -20 55 -40 55 -45 0 -23
-26 -16 -81 22 -45 31 -58 44 -48 50 18 11 12 14 74 -27z m157 -105 c62 -38
78 -59 43 -59 -24 0 -132 75 -127 88 5 17 9 16 84 -29z m157 -95 c61 -36 70
-47 51 -59 -14 -9 -130 63 -130 81 0 21 13 18 79 -22z m198 -114 c217 -122
493 -251 802 -377 86 -35 125 -63 88 -63 -17 0 -268 101 -432 173 -193 85
-585 290 -585 306 0 7 10 21 16 21 2 0 51 -27 111 -60z m-20257 -1175 l175
-175 175 175 176 176 122 -123 122 -123 -175 -175 -175 -175 177 -177 178
-178 -123 -122 -122 -123 -173 173 c-95 94 -177 172 -182 172 -5 0 -87 -78
-182 -172 l-173 -173 -122 123 -123 122 173 173 c94 95 172 177 172 182 0 5
-78 87 -172 182 l-173 173 120 120 c66 66 122 120 125 120 3 0 84 -79 180
-175z m6070 -3305 l0 -100 -95 0 -95 0 0 100 0 100 95 0 95 0 0 -100z m1210 0
l0 -100 -95 0 -95 0 0 100 0 100 95 0 95 0 0 -100z m1220 0 l0 -100 -100 0
-100 0 0 100 0 100 100 0 100 0 0 -100z m1210 0 l0 -100 -95 0 -95 0 0 100 0
100 95 0 95 0 0 -100z m1210 0 l0 -100 -95 0 -95 0 0 100 0 100 95 0 95 0 0
-100z m1218 -2 l3 -98 -101 0 -100 0 0 93 c0 52 3 97 7 101 4 4 48 5 98 4 l90
-3 3 -97z m12942 -561 c35 -61 120 -209 188 -327 68 -118 126 -220 129 -227 4
-10 -71 -13 -387 -13 -360 0 -392 1 -386 16 6 15 131 235 312 547 37 64 70
117 73 117 3 0 35 -51 71 -113z m-19010 -322 l0 -95 -95 0 -95 0 0 95 0 95 95
0 95 0 0 -95z m2430 0 l0 -95 -100 0 -100 0 0 95 0 95 100 0 100 0 0 -95z
m1210 0 l0 -95 -95 0 -95 0 0 95 0 95 95 0 95 0 0 -95z m1210 0 l0 -95 -95 0
-95 0 0 95 0 95 95 0 95 0 0 -95z m1220 0 l0 -95 -100 0 -100 0 0 95 0 95 100
0 100 0 0 -95z m12891 -743 c8 -15 78 -135 154 -267 185 -321 215 -373 215
-380 0 -3 -178 -5 -395 -5 l-394 0 125 218 c70 119 158 272 196 340 39 67 73
122 77 122 3 0 13 -12 22 -28z m-18963 -139 l-3 -98 -92 -3 -93 -3 0 101 0
100 95 0 96 0 -3 -97z m1212 -3 l0 -101 -92 3 -93 3 -3 98 -3 97 96 0 95 0 0
-100z m1218 3 l-3 -98 -95 0 -95 0 -3 98 -3 97 101 0 101 0 -3 -97z m2422 -3
l0 -101 -92 3 -93 3 -3 98 -3 97 96 0 95 0 0 -100z m1215 0 l0 -95 -95 0 -95
0 -3 84 c-2 46 0 90 2 98 4 11 27 13 98 11 l93 -3 0 -95z m5525 -525 l-24 -26
-25 25 -25 25 24 26 24 26 25 -25 25 -25 -24 -26z m-15255 -73 c98 -48 151
-164 121 -265 -38 -127 -160 -198 -279 -163 -171 50 -228 250 -108 379 65 71
179 92 266 49z m6095 -287 l0 -95 -100 0 -100 0 0 95 0 95 100 0 100 0 0 -95z
m1210 0 l0 -95 -95 0 -95 0 0 95 0 95 95 0 95 0 0 -95z m1210 0 l0 -95 -95 0
-95 0 0 95 0 95 95 0 95 0 0 -95z m1220 0 l0 -95 -100 0 -100 0 0 95 0 95 100
0 100 0 0 -95z m5132 28 c23 -21 23 -36 -2 -58 -20 -18 -21 -18 -44 4 l-24 23
21 24 c25 29 25 29 49 7z m871 -145 c-15 -16 -28 -28 -29 -28 -2 0 -15 12 -28
27 l-26 27 27 28 26 27 28 -27 28 -26 -26 -28z m6888 -6 c258 -444 370 -644
367 -648 -3 -2 -180 -3 -395 -2 l-390 3 194 338 c108 185 198 337 202 337 3 0
13 -12 22 -28z m-8141 -287 l-24 -26 -25 25 -25 25 24 26 23 25 25 -25 25 -25
-23 -25z m863 -97 l-27 -28 -28 27 -28 27 27 28 27 28 28 -27 28 -27 -27 -28z
m861 -23 c11 -8 16 -15 11 -15 -5 0 -1 -6 9 -13 16 -11 15 -15 -14 -42 l-30
-29 -30 29 -29 28 22 28 c25 32 34 34 61 14z m-2106 -226 c14 -22 7 -43 -10
-33 -6 4 -8 2 -4 -4 13 -22 -16 -23 -40 -1 l-24 23 21 22 c24 25 38 23 57 -7z
m-4368 -129 l0 -100 -100 0 -100 0 0 100 0 100 100 0 100 0 0 -100z m5230 45
l24 -26 -27 -27 -27 -27 -27 27 -27 27 24 26 c13 14 26 25 30 25 4 0 17 -11
30 -25z m864 -145 l-30 -30 -29 30 -29 30 29 30 29 30 30 -30 31 -30 -31 -30z
m869 -30 l32 -29 -35 -36 -34 -35 -28 27 c-34 32 -35 45 -6 78 27 32 32 31 71
-5z m-2985 -123 l22 -23 -25 -24 -25 -23 -25 23 -25 24 22 23 c12 13 24 23 28
23 4 0 16 -10 28 -23z m865 -139 c-28 -29 -39 -27 -71 11 -10 12 -7 20 15 43
l27 28 28 -27 28 -27 -27 -28z m870 -36 l27 -28 -29 -28 c-29 -28 -30 -28 -55
-10 -36 27 -38 41 -10 69 31 31 34 31 67 -3z m861 -84 c14 -17 26 -35 26 -38
0 -3 -13 -19 -30 -35 l-30 -29 -30 29 c-16 16 -30 32 -30 35 0 9 52 70 60 70
4 0 19 -14 34 -32z m888 -112 c8 -15 3 -25 -23 -52 l-33 -34 -38 37 -38 37 37
38 37 38 24 -23 c13 -12 28 -30 34 -41z m-3867 -16 c18 -20 18 -21 -6 -46
l-25 -25 -22 24 c-20 21 -21 25 -6 45 19 27 36 28 59 2z m878 -104 c3 -8 -7
-26 -22 -40 l-27 -26 -22 25 c-27 31 -27 33 -1 61 20 21 23 22 44 8 13 -8 26
-21 28 -28z m851 -127 l-31 -30 -32 27 -32 27 31 32 32 33 31 -29 31 -30 -30
-30z m-6544 -14 l0 -95 -95 0 -95 0 0 95 0 95 95 0 95 0 0 -95z m1220 0 l0
-95 -100 0 -100 0 0 95 0 95 100 0 100 0 0 -95z m6220 -46 c0 -3 -15 -19 -33
-37 l-33 -32 -33 34 -33 34 31 31 32 31 34 -27 c19 -16 35 -30 35 -34z m837
-126 c-17 -18 -37 -33 -42 -33 -11 0 -65 57 -65 68 0 3 14 21 32 39 l32 33 38
-37 38 -37 -33 -33z m6043 -13 l0 -100 -500 0 -500 0 0 100 0 100 500 0 500 0
0 -100z m-9893 49 l22 -22 -22 -23 c-28 -30 -42 -30 -61 -2 -15 20 -14 24 6
45 26 28 26 28 55 2z m4715 -57 l37 -39 -39 -38 -40 -39 -40 39 -40 39 37 38
c20 21 40 38 43 38 3 0 22 -17 42 -38z m-3852 -37 l24 -26 -27 -27 -27 -27
-27 27 -27 27 24 26 c13 14 26 25 30 25 4 0 17 -11 30 -25z m889 -111 c1 -16
-34 -45 -44 -37 -4 5 -5 3 -1 -4 14 -25 -12 -21 -38 6 l-28 29 27 31 28 30 28
-22 c15 -12 28 -27 28 -33z m846 -64 l29 -30 -29 -30 c-16 -16 -32 -30 -37
-30 -4 0 -23 14 -41 31 l-32 31 33 29 c18 16 36 29 40 29 5 0 21 -13 37 -30z
m865 -85 l34 -35 -37 -38 -37 -37 -37 37 -37 37 35 35 c19 20 36 36 40 36 3 0
20 -16 39 -35z m-3861 -28 c6 -8 7 -18 3 -22 -4 -5 -2 -5 5 -1 23 13 22 -12
-2 -34 l-25 -23 -25 23 -25 24 22 23 c25 27 31 28 47 10z m4731 -62 l34 -35
-39 -40 c-43 -42 -44 -42 -89 8 l-30 32 34 35 c19 19 39 35 44 35 6 0 27 -16
46 -35z m-3857 -87 l-27 -28 -28 27 -28 27 27 28 27 28 28 -27 28 -27 -27 -28z
m6244 46 c2 -5 -118 -130 -267 -279 -215 -215 -272 -267 -282 -257 -10 10 42
67 257 282 149 149 274 269 279 267 6 -2 11 -7 13 -13z m263 3 c0 -22 -537
-551 -545 -537 -5 8 85 105 261 281 148 148 272 269 276 269 5 0 8 -6 8 -13z
m267 -3 c2 -5 -119 -130 -267 -278 -212 -212 -273 -267 -282 -258 -10 10 46
70 257 282 149 149 274 269 279 267 6 -2 11 -7 13 -13z m267 8 c3 -5 -118
-131 -268 -281 -183 -183 -276 -269 -281 -261 -5 8 85 105 261 281 148 148
272 269 276 269 4 0 9 -4 12 -8z m263 -8 c2 -5 -118 -130 -267 -279 -215 -215
-272 -267 -282 -257 -10 10 42 67 257 282 149 149 274 269 279 267 6 -2 11 -7
13 -13z m263 3 c0 -22 -537 -551 -545 -537 -5 8 85 105 261 281 148 148 272
269 276 269 5 0 8 -6 8 -13z m264 5 c3 -5 -118 -131 -268 -281 -183 -183 -276
-269 -281 -261 -5 8 85 105 261 281 148 148 272 269 276 269 4 0 9 -4 12 -8z
m266 -4 c0 -14 -529 -548 -542 -548 -5 0 -8 6 -8 12 0 14 529 548 542 548 5 0
8 -6 8 -12z m264 4 c3 -5 -118 -131 -268 -281 -183 -183 -276 -269 -281 -261
-5 8 85 105 261 281 148 148 272 269 276 269 4 0 9 -4 12 -8z m266 -5 c0 -6
-121 -133 -270 -282 -216 -216 -272 -267 -282 -257 -10 10 41 66 258 282 148
149 275 270 282 270 7 0 12 -6 12 -13z m264 5 c3 -5 -118 -131 -268 -281 -183
-183 -276 -269 -281 -261 -5 8 85 105 261 281 148 148 272 269 276 269 4 0 9
-4 12 -8z m263 -8 c2 -5 -118 -130 -267 -279 -213 -213 -272 -267 -282 -257
-10 10 44 68 257 282 149 148 274 268 279 267 6 -2 11 -7 13 -13z m267 8 c3
-5 -118 -131 -268 -281 -183 -183 -276 -269 -281 -261 -5 8 85 105 261 281
148 148 272 269 276 269 4 0 9 -4 12 -8z m-4700 -52 l39 -41 -43 -45 -44 -44
-38 41 c-21 23 -38 46 -38 51 0 11 67 78 78 78 4 0 25 -18 46 -40z m-3851 -38
l27 -28 -29 -28 -29 -28 -31 23 c-31 23 -31 29 2 67 26 28 28 28 60 -6z m865
-85 l32 -33 -35 -34 -35 -34 -35 34 -35 34 33 32 c17 17 34 32 38 33 3 0 19
-14 37 -32z m-5420 -94 l-3 -98 -95 0 -95 0 -3 98 -3 97 101 0 101 0 -3 -97z
m6284 -65 l-37 -37 -37 36 -37 36 36 38 36 38 38 -37 38 -36 -37 -38z m-3852
-13 l-24 -26 -25 25 -25 25 24 26 24 26 25 -25 25 -25 -24 -26z m4728 -12 c12
-12 22 -25 22 -30 0 -12 -63 -73 -76 -73 -7 0 -26 16 -44 36 l-32 37 38 38
c40 41 43 41 92 -8z m-3858 -30 l21 -27 -26 -25 -25 -26 -27 27 -27 27 24 26
c29 31 34 31 60 -2z m4712 -136 l-41 -41 -41 39 c-22 22 -40 44 -40 49 0 4 18
25 41 46 l41 37 41 -44 41 -44 -42 -42z m-3846 -6 c-31 -33 -47 -31 -71 6 -16
24 -16 26 11 54 l28 29 30 -30 30 -30 -28 -29z m4714 -86 l-44 -45 -43 42
c-24 23 -43 48 -43 54 0 7 19 29 42 48 l42 37 45 -46 45 -45 -44 -45z m-3845
55 l29 -30 -35 -35 -35 -35 -31 32 -32 33 26 33 c15 17 32 32 38 32 6 0 24
-14 40 -30z m860 -87 l35 -37 -35 -36 -35 -35 -37 37 -37 38 34 35 c19 19 35
35 37 35 2 0 19 -17 38 -37z m-3847 -36 l22 -23 -25 -24 -25 -23 -25 23 -25
24 22 23 c12 13 24 23 28 23 4 0 16 -10 28 -23z m4716 -53 l39 -36 -41 -41
-42 -41 -35 34 c-19 19 -35 39 -35 45 0 10 60 75 69 75 4 0 24 -16 45 -36z
m-3834 -65 c0 -3 -11 -16 -24 -28 l-24 -22 -27 27 -26 26 27 29 28 29 23 -27
c12 -16 22 -31 23 -34z m4699 -21 l40 -43 -41 -42 -42 -43 -43 42 -43 42 42
43 c23 24 43 43 44 43 2 0 21 -19 43 -42z m-3865 -31 c-1 -8 4 -13 11 -11 27
11 26 -30 -3 -58 l-28 -28 -28 29 -29 30 24 29 c25 30 55 36 53 9z m4754 -124
c-11 -12 -25 -20 -31 -16 -6 3 -7 1 -4 -4 4 -6 -3 -19 -14 -29 -19 -18 -21
-17 -66 28 l-46 46 44 45 44 45 47 -46 48 -46 -22 -23z m-3903 46 c-3 -5 0 -7
7 -4 16 5 52 -41 43 -55 -4 -6 -12 -7 -18 -4 -7 4 -9 3 -4 -1 8 -9 -20 -45
-35 -45 -10 0 -57 51 -58 63 0 13 53 67 62 61 4 -3 6 -10 3 -15z m4743 -62
c23 -23 42 -47 42 -53 0 -5 -20 -30 -45 -54 l-45 -44 -49 48 -50 49 47 48 c26
26 49 48 52 49 3 0 25 -19 48 -43z m-3847 -37 c16 -16 29 -33 29 -38 0 -4 -16
-23 -35 -42 l-35 -34 -36 35 -36 36 32 37 c18 20 37 36 42 36 6 0 24 -13 39
-30z m-3852 -41 l23 -22 -26 -25 -25 -26 -26 24 -25 24 22 23 c26 28 29 28 57
2z m4716 -129 l-41 -40 -39 40 -39 40 39 40 39 40 41 -40 40 -40 -40 -40z
m-3852 -12 l-27 -28 -28 27 -29 27 28 27 28 27 28 -26 27 -26 -27 -28z m4722
2 l39 -40 -42 -43 -42 -42 -42 42 -42 43 39 40 c21 22 42 40 45 40 3 0 24 -18
45 -40z m-3852 -38 l27 -28 -30 -29 -30 -29 -30 29 -30 29 27 28 c15 15 30 28
33 28 3 0 18 -13 33 -28z m4717 -47 l44 -45 -46 -47 -46 -46 -48 46 -48 47 45
45 c24 25 46 45 49 45 3 0 26 -20 50 -45z m-3852 -38 l32 -33 -35 -34 -35 -33
-30 32 c-18 18 -28 37 -24 44 10 15 47 55 55 56 3 1 19 -14 37 -32z m4722 -53
l43 -46 -50 -49 -49 -49 -49 50 -49 50 44 45 c25 24 50 45 56 45 6 0 30 -21
54 -46z m-3857 -106 l-37 -38 -38 37 -37 36 37 38 37 37 38 -36 37 -36 -37
-38z m4734 2 l33 -35 -47 -47 c-26 -27 -52 -48 -58 -48 -6 0 -24 15 -40 33
-64 69 -63 63 -10 117 55 56 50 57 122 -20z m-8583 -11 l-26 -28 -26 24 -26
24 23 25 23 25 29 -21 29 -22 -26 -27z m4718 -6 l38 -37 -37 -38 c-20 -21 -41
-38 -47 -38 -5 0 -25 16 -44 36 l-35 36 39 39 c21 21 40 39 43 39 3 0 22 -17
43 -37z m-3852 -38 l24 -26 -27 -27 -27 -27 -27 27 -27 27 24 26 c13 14 26 25
30 25 4 0 17 -11 30 -25z m4718 -48 l42 -43 -43 -42 -42 -42 -43 40 c-25 24
-40 46 -36 53 8 15 67 76 74 76 3 1 25 -18 48 -42z m-3853 -97 l-31 -30 -33
28 -34 28 34 32 34 32 30 -30 30 -30 -30 -30z m4743 -57 c-11 -12 -23 -21 -27
-20 -3 1 -7 -2 -9 -8 -2 -5 -11 -18 -20 -28 -15 -17 -18 -15 -62 28 l-46 46
45 49 45 49 47 -47 47 -47 -20 -22z m-3873 27 l29 -30 -34 -35 -34 -35 -35 35
-35 34 34 31 c18 16 36 30 40 30 3 0 19 -14 35 -30z m4717 -49 l47 -48 -49
-48 -50 -49 -31 30 c-79 72 -76 60 -22 115 26 27 50 49 53 49 3 0 26 -22 52
-49z m-3852 -36 l34 -35 -37 -37 -37 -38 -37 38 -37 37 34 35 c19 19 37 34 40
34 3 0 21 -15 40 -34z m4714 -54 c27 -27 45 -54 41 -60 -3 -6 -11 -8 -17 -5
-6 4 -8 3 -5 -3 4 -6 -11 -27 -33 -47 l-39 -36 -52 51 -52 50 49 50 c26 27 51
49 54 49 3 0 27 -22 54 -49z m-3827 -63 c10 -12 6 -21 -25 -51 l-38 -37 -37
35 c-20 19 -37 38 -37 42 0 4 16 24 36 44 l35 36 27 -27 c15 -15 33 -33 39
-42z m-3874 -60 l-27 -28 -28 27 -28 27 27 28 27 28 28 -27 28 -27 -27 -28z"/>
<path d="M26713 18512 c-6 -4 -16 -19 -22 -34 -8 -22 -6 -31 10 -52 11 -14 31
-26 43 -26 28 0 66 35 66 60 0 40 -63 74 -97 52z"/>
<path d="M27315 18505 c-14 -13 -25 -33 -25 -45 0 -11 11 -32 25 -45 13 -14
34 -25 45 -25 12 0 32 11 45 25 14 13 25 34 25 45 0 12 -11 32 -25 45 -13 14
-33 25 -45 25 -11 0 -32 -11 -45 -25z"/>
<path d="M27929 18512 c-26 -22 -31 -75 -8 -97 26 -26 63 -28 92 -5 34 27 36
71 5 100 -27 25 -59 26 -89 2z"/>
<path d="M16924 18507 c-2 -7 -3 -91 -2 -187 l3 -175 2413 -3 2412 -2 0 190 0
190 -2410 0 c-1954 0 -2412 -2 -2416 -13z m376 -112 l24 -26 -27 -27 -27 -27
-27 27 -27 27 24 26 c13 14 26 25 30 25 4 0 17 -11 30 -25z m864 -134 c-23
-26 -36 -26 -59 -1 -18 20 -18 21 5 45 l24 26 24 -24 c23 -24 24 -25 6 -46z"/>
<path d="M26092 17983 c-36 -31 -37 -60 -3 -93 35 -35 49 -37 85 -9 32 25 35
70 6 99 -25 25 -61 26 -88 3z"/>
<path d="M26700 17980 c-37 -37 -21 -94 33 -113 24 -9 63 11 76 39 29 65 -58
125 -109 74z"/>
<path d="M27311 17974 c-12 -15 -21 -35 -21 -46 0 -25 44 -68 70 -68 26 0 70
43 70 68 0 33 -38 72 -70 72 -19 0 -36 -9 -49 -26z"/>
<path d="M8790 7140 l0 -60 65 0 65 0 0 60 0 60 -65 0 -65 0 0 -60z"/>
<path d="M10010 7140 l0 -60 60 0 60 0 0 60 0 60 -60 0 -60 0 0 -60z"/>
<path d="M11220 7140 l0 -60 60 0 60 0 0 60 0 60 -60 0 -60 0 0 -60z"/>
<path d="M12430 7140 l0 -60 65 0 66 0 -3 58 -3 57 -62 3 -63 3 0 -61z"/>
<path d="M13650 7140 l0 -60 60 0 60 0 0 60 0 60 -60 0 -60 0 0 -60z"/>
<path d="M14858 7140 l-3 -60 65 0 65 0 -3 60 -4 60 -58 0 -58 0 -4 -60z"/>
<path d="M8790 6255 l0 -66 63 3 62 3 0 60 0 60 -62 3 -63 3 0 -66z"/>
<path d="M11220 6255 l0 -65 60 0 60 0 0 65 0 65 -60 0 -60 0 0 -65z"/>
<path d="M12432 6258 l3 -63 60 0 60 0 0 60 0 60 -63 3 -63 3 3 -63z"/>
<path d="M13650 6255 l0 -65 60 0 60 0 0 65 0 65 -60 0 -60 0 0 -65z"/>
<path d="M14860 6255 l0 -65 60 0 60 0 0 65 0 65 -60 0 -60 0 0 -65z"/>
<path d="M8790 5370 l0 -60 65 0 65 0 0 60 0 60 -65 0 -65 0 0 -60z"/>
<path d="M10010 5370 l0 -60 60 0 60 0 0 60 0 60 -60 0 -60 0 0 -60z"/>
<path d="M11220 5370 l0 -60 60 0 60 0 0 60 0 60 -60 0 -60 0 0 -60z"/>
<path d="M13650 5368 l0 -63 60 3 60 4 0 59 0 59 -60 0 -60 0 0 -62z"/>
<path d="M14860 5373 l0 -63 60 0 60 0 0 59 0 59 -60 4 -60 3 0 -62z"/>
<path d="M5093 4738 c-131 -71 -138 -260 -14 -340 41 -26 53 -29 112 -26 111
6 179 71 187 177 8 117 -65 202 -183 209 -48 3 -68 -1 -102 -20z"/>
<path d="M11220 4495 c0 -30 0 -58 0 -62 0 -5 27 -8 60 -8 33 0 60 3 60 8 0 4
0 32 0 62 l0 55 -60 0 -60 0 0 -55z"/>
<path d="M12434 4537 c-3 -8 -4 -36 -2 -63 l3 -49 60 0 60 0 0 60 0 60 -58 3
c-42 2 -59 -1 -63 -11z"/>
<path d="M13650 4485 l0 -65 60 0 60 0 0 65 0 65 -60 0 -60 0 0 -65z"/>
<path d="M14860 4485 l0 -65 60 0 60 0 0 65 0 65 -60 0 -60 0 0 -65z"/>
<path d="M14860 3600 l0 -60 60 0 60 0 0 60 0 60 -60 0 -60 0 0 -60z"/>
<path d="M13650 2715 l0 -65 60 0 60 0 0 65 0 65 -60 0 -60 0 0 -65z"/>
<path d="M14860 2715 l0 -65 60 0 60 0 0 65 0 65 -60 0 -60 0 0 -65z"/>
<path d="M14858 1828 l3 -63 59 3 58 4 4 59 3 59 -65 0 -65 0 3 -62z"/>
<path d="M4341 16836 l-3083 -3083 78 -27 c131 -45 295 -96 308 -96 13 0 986
972 986 985 0 5 -39 49 -87 97 l-88 88 123 122 122 123 89 -89 c76 -75 91 -87
107 -78 11 6 1063 1055 2338 2331 l2319 2319 -27 97 c-28 99 -82 260 -95 282
-4 8 -1105 -1086 -3090 -3071z"/>
<path d="M1699 19893 c-13 -16 -12 -17 4 -4 16 13 21 21 13 21 -2 0 -10 -8
-17 -17z"/>
<path d="M1619 19813 c-13 -16 -12 -17 4 -4 16 13 21 21 13 21 -2 0 -10 -8
-17 -17z"/>
<path d="M1539 19733 c-13 -16 -12 -17 4 -4 16 13 21 21 13 21 -2 0 -10 -8
-17 -17z"/>
<path d="M1459 19653 c-13 -16 -12 -17 4 -4 9 7 17 15 17 17 0 8 -8 3 -21 -13z"/>
<path d="M1379 19573 c-13 -16 -12 -17 4 -4 9 7 17 15 17 17 0 8 -8 3 -21 -13z"/>
<path d="M1299 19493 c-13 -16 -12 -17 4 -4 16 13 21 21 13 21 -2 0 -10 -8
-17 -17z"/>
<path d="M5232 17158 l-2322 -2322 72 -73 73 -73 177 177 178 178 53 -53 c29
-28 57 -51 62 -50 6 1 938 931 2071 2067 l2062 2066 -24 115 c-34 166 -65 290
-73 290 -4 0 -1052 -1045 -2329 -2322z"/>
<path d="M1219 19413 c-13 -16 -12 -17 4 -4 16 13 21 21 13 21 -2 0 -10 -8
-17 -17z"/>
<path d="M1139 19333 c-13 -16 -12 -17 4 -4 16 13 21 21 13 21 -2 0 -10 -8
-17 -17z"/>
<path d="M1059 19253 c-13 -16 -12 -17 4 -4 16 13 21 21 13 21 -2 0 -10 -8
-17 -17z"/>
<path d="M979 19173 c-13 -16 -12 -17 4 -4 16 13 21 21 13 21 -2 0 -10 -8 -17
-17z"/>
<path d="M899 19093 c-13 -16 -12 -17 4 -4 16 13 21 21 13 21 -2 0 -10 -8 -17
-17z"/>
<path d="M819 19013 c-13 -16 -12 -17 4 -4 16 13 21 21 13 21 -2 0 -10 -8 -17
-17z"/>
<path d="M5605 16967 l-2058 -2058 54 -55 54 -54 -178 -178 -177 -177 75 -75
75 -75 2134 2135 2133 2135 -9 105 c-5 58 -17 161 -26 230 l-18 125 -2059
-2058z"/>
<path d="M739 18933 c-13 -16 -12 -17 4 -4 16 13 21 21 13 21 -2 0 -10 -8 -17
-17z"/>
<path d="M659 18853 c-13 -16 -12 -17 4 -4 16 13 21 21 13 21 -2 0 -10 -8 -17
-17z"/>
<path d="M579 18773 c-13 -16 -12 -17 4 -4 16 13 21 21 13 21 -2 0 -10 -8 -17
-17z"/>
<path d="M499 18693 c-13 -16 -12 -17 4 -4 16 13 21 21 13 21 -2 0 -10 -8 -17
-17z"/>
<path d="M419 18613 c-13 -16 -12 -17 4 -4 16 13 21 21 13 21 -2 0 -10 -8 -17
-17z"/>
<path d="M339 18533 c-13 -16 -12 -17 4 -4 16 13 21 21 13 21 -2 0 -10 -8 -17
-17z"/>
<path d="M5606 16401 c-1161 -1161 -2113 -2108 -2116 -2106 -4 2 -7 -4 -7 -13
0 -9 38 -56 86 -105 l86 -87 -122 -122 -122 -122 -94 92 c-82 80 -120 111
-103 84 3 -5 -116 -129 -265 -278 -148 -148 -269 -272 -269 -275 0 -11 257
-20 378 -13 l119 7 54 50 c30 28 57 50 62 49 4 -1 6 2 5 6 -4 11 64 77 75 74
4 -1 6 2 5 7 -4 11 64 77 74 73 5 -1 7 2 5 7 -3 11 65 77 75 73 5 -1 7 2 5 7
-3 11 65 77 75 73 5 -1 7 2 5 7 -3 11 65 77 75 73 5 -1 7 2 5 7 -3 11 65 77
75 73 5 -1 7 2 5 6 -3 11 65 77 75 74 5 -1 7 2 5 7 -3 11 65 77 75 73 5 -1 7
2 5 6 -3 11 65 77 75 74 5 -1 7 2 5 7 -3 11 65 77 75 73 5 -1 7 2 5 6 -3 11
65 77 75 74 5 -1 7 2 5 7 -3 11 65 77 75 73 5 -1 7 2 5 6 -3 11 65 77 75 74 5
-1 7 2 5 7 -3 11 65 77 75 73 5 -1 7 2 5 6 -3 11 65 77 75 74 5 -1 7 2 5 7 -3
11 65 77 75 73 5 -1 7 2 5 6 -3 11 65 77 75 74 5 -1 7 2 5 7 -3 11 65 77 75
73 5 -1 7 2 5 6 -3 11 65 77 75 74 5 -1 7 2 5 7 -3 11 65 77 75 73 5 -1 7 2 5
6 -3 11 65 77 75 74 5 -1 7 2 5 7 -3 11 65 77 75 73 5 -1 7 2 5 6 -3 11 65 77
75 74 5 -1 7 2 5 7 -3 11 65 77 75 73 5 -1 7 2 5 6 -3 11 65 77 75 74 5 -1 7
2 5 7 -3 11 65 77 75 73 5 -1 7 2 5 6 -3 11 65 77 75 74 5 -1 7 2 5 7 -3 11
65 77 75 73 5 -1 7 2 5 6 -3 11 65 77 75 74 5 -1 7 2 5 7 -3 11 65 77 76 73 4
-1 6 2 5 6 -4 11 64 77 75 74 4 -1 6 2 5 7 -4 11 64 77 75 73 4 -1 6 2 5 6 -4
11 64 77 75 74 4 -1 6 2 5 7 -4 11 64 77 75 73 4 -1 6 2 5 6 -4 11 64 77 75
74 4 -1 6 2 5 7 -4 11 64 77 75 73 4 -1 6 2 5 6 -4 11 64 77 75 74 4 -1 6 2 5
7 -4 11 64 77 75 73 4 -1 6 2 5 6 -4 11 64 77 75 74 4 -1 6 2 5 7 -4 11 64 77
75 73 4 -1 6 2 5 6 -4 11 64 77 75 74 4 -1 6 2 5 7 -4 11 64 77 75 73 4 -1 6
2 5 6 -4 11 64 77 75 74 4 -1 6 2 5 7 -4 11 64 77 74 73 5 -1 7 2 5 6 -3 11
65 77 75 74 5 -1 7 2 5 7 -3 11 65 77 75 73 5 -1 7 2 5 6 -3 11 65 77 75 74 5
-1 7 2 5 7 -3 11 65 77 75 73 5 -1 7 2 5 6 -3 11 65 77 75 74 5 -1 7 2 5 7 -3
11 65 77 75 73 5 -1 7 2 5 6 -3 11 65 77 75 74 5 -1 7 2 5 7 -3 11 65 77 76
73 4 -1 6 2 5 6 -4 11 64 77 75 74 4 -1 6 2 5 7 -4 11 64 77 75 73 4 -1 6 2 5
6 -2 4 20 31 48 58 l52 51 7 126 c4 69 3 185 -1 256 l-9 131 -2109 -2109z"/>
<path d="M259 18453 c-13 -16 -12 -17 4 -4 16 13 21 21 13 21 -2 0 -10 -8 -17
-17z"/>
<path d="M179 18373 c-13 -16 -12 -17 4 -4 16 13 21 21 13 21 -2 0 -10 -8 -17
-17z"/>
<path d="M99 18293 c-13 -16 -12 -17 4 -4 16 13 21 21 13 21 -2 0 -10 -8 -17
-17z"/>
<path d="M5472 15707 c-1227 -1228 -2232 -2235 -2232 -2237 0 -13 388 31 535
60 50 10 58 18 1958 1918 l1907 1907 15 77 c29 153 68 508 56 508 -3 0 -1011
-1005 -2239 -2233z"/>
<path d="M5758 15423 c-1022 -1022 -1858 -1859 -1858 -1860 0 -20 412 88 629
164 l74 27 1413 1413 1413 1413 55 169 c62 187 139 482 134 512 -2 14 -484
-462 -1860 -1838z"/>
<path d="M6040 15140 c-732 -732 -1330 -1334 -1327 -1336 8 -8 225 89 402 180
152 78 489 275 505 296 3 3 43 32 90 64 283 196 694 574 880 811 18 22 35 42
39 45 14 10 177 226 242 320 136 197 238 368 346 583 78 155 166 357 159 364
-2 3 -603 -595 -1336 -1327z"/>
<path d="M2185 14111 c-264 -264 -481 -484 -483 -489 -4 -13 334 -92 392 -92
14 0 92 71 246 225 l225 225 -55 55 -55 55 178 178 177 177 -73 73 -73 72
-479 -479z"/>
<path d="M2878 14023 l-178 -178 -54 54 -55 54 -217 -216 c-135 -136 -211
-219 -203 -222 26 -9 253 -35 354 -41 l100 -6 290 291 290 291 -75 75 -75 75
-177 -177z"/>
<path d="M29908 8414 c-82 -19 -148 -55 -216 -118 -158 -147 -197 -379 -97
-576 61 -121 221 -234 349 -247 l56 -6 0 482 c0 452 -1 481 -17 480 -10 0 -44
-7 -75 -15z"/>
<path d="M3611 8355 c-88 -20 -145 -42 -225 -89 -60 -35 -311 -282 -1728
-1698 l-1658 -1658 0 -997 0 -998 2159 2160 c1961 1963 2162 2167 2200 2234
131 232 130 492 -2 716 -50 86 -162 197 -248 248 -141 83 -346 117 -498 82z"/>
<path d="M3250 4424 c-36 -7 -94 -28 -130 -45 -60 -29 -181 -147 -1593 -1558
l-1527 -1526 0 -647 0 -648 103 0 102 0 1770 1773 c974 974 1784 1790 1801
1812 72 96 102 175 111 290 10 154 -42 290 -158 406 -75 76 -159 122 -264 144
-85 18 -130 18 -215 -1z"/>
<path d="M9990 3600 l0 -80 80 0 80 0 0 80 0 80 -80 0 -80 0 0 -80z"/>
<path d="M11200 3600 l0 -80 80 0 80 0 0 80 0 80 -80 0 -80 0 0 -80z"/>
<path d="M12430 3600 l0 -60 65 0 65 0 0 60 0 60 -65 0 -65 0 0 -60z"/>
<path d="M8888 3543 c6 -2 18 -2 25 0 6 3 1 5 -13 5 -14 0 -19 -2 -12 -5z"/>
<path d="M8950 3526 l0 -26 -95 0 c-90 0 -95 1 -95 21 0 20 -3 21 -82 14
-1078 -87 -2044 -521 -2811 -1264 -535 -519 -953 -1195 -1166 -1889 -49 -159
-104 -372 -98 -378 2 -2 1989 -3 4415 -2 l4411 3 -39 150 c-140 548 -403 1102
-736 1551 -55 73 -59 77 -62 52 l-3 -28 -95 0 -94 0 0 100 0 100 36 0 c20 0
34 4 32 9 -9 27 -275 305 -393 412 -348 314 -683 544 -1070 734 -590 288
-1187 436 -1867 461 l-188 7 0 -27z m2430 -806 l0 -100 -100 0 -100 0 0 95 0
94 98 4 c53 1 98 4 100 5 1 1 2 -43 2 -98z m-2430 -5 l0 -95 -95 0 -95 0 0 95
0 95 95 0 95 0 0 -95z m1210 0 l0 -95 -95 0 -95 0 0 95 0 95 95 0 95 0 0 -95z
m-1210 -885 l0 -100 -95 0 -95 0 0 100 0 100 95 0 95 0 0 -100z m1210 0 l0
-100 -95 0 -95 0 0 93 c0 52 3 97 7 100 3 4 46 7 95 7 l88 0 0 -100z m1220 0
l0 -100 -100 0 -100 0 0 100 0 100 100 0 100 0 0 -100z"/>
<path d="M11220 2715 l0 -65 60 0 60 0 0 65 0 65 -60 0 -60 0 0 -65z"/>
<path d="M8790 2715 l0 -66 63 3 62 3 3 63 3 62 -66 0 -65 0 0 -65z"/>
<path d="M10010 2725 c0 -30 0 -58 0 -62 0 -5 26 -8 58 -8 l57 0 3 63 3 62
-61 0 -60 0 0 -55z"/>
<path d="M8790 1830 l0 -60 65 0 65 0 0 60 0 60 -65 0 -65 0 0 -60z"/>
<path d="M10008 1830 l4 -60 59 0 59 0 0 60 0 60 -62 0 -63 0 3 -60z"/>
<path d="M11220 1830 l0 -60 60 0 60 0 0 60 0 60 -60 0 -60 0 0 -60z"/>
<path d="M12410 2720 l0 -80 80 0 80 0 0 80 0 80 -80 0 -80 0 0 -80z"/>
<path d="M13630 1830 l0 -80 80 0 80 0 0 80 0 80 -80 0 -80 0 0 -80z"/>
<path d="M12430 1830 l0 -60 65 0 65 0 0 33 c0 47 -43 87 -93 87 l-37 0 0 -60z"/>
</g>
</svg>